# xmcd CD database file
#
# Track frame offsets:
#	150
#	24658
#	54240
#	78068
#	106692
#	136279
#	152858
#	194495
#	218067
#	253345
#	277451
#	320058
#
# Disc length: 4437 seconds
#
# Revision: 0
# Processed by: cddbd v1.5.2PL0 Copyright (c) Steve Scherf et al.
# Submitted via: CDex 1.51
#
DISCID=ae11530c
DTITLE=Barbara Dennerlein - outhipped
DYEAR=1999
DGENRE=Jazz
TTITLE0=Outhipped
TTITLE1=Frog Dance
TTITLE2=Odd Blues
TTITLE3=Bloody Mary
TTITLE4=Sweet Poison
TTITLE5=Black And White
TTITLE6=Mabuse
TTITLE7=Strange Passion
TTITLE8=Farewell To Old Friends
TTITLE9=Satisfaction
TTITLE10=In The Mud
TTITLE11=Jammin'
EXTD=YEAR: 1999
EXTT0=
EXTT1=
EXTT2=
EXTT3=
EXTT4=
EXTT5=
EXTT6=
EXTT7=
EXTT8=
EXTT9=
EXTT10=
EXTT11=
PLAYORDER=
